<svg width="64" height="57" viewBox="0 0 64 57" fill="none" xmlns="http://www.w3.org/2000/svg">
<rect width="64" height="57" rx="6" fill="black"/>
<path d="M39.4777 42.4294V44H24.3888V42.4294L27.4739 42.0367C28.0722 41.9619 28.4275 41.8124 28.5396 41.588C28.6518 41.3262 28.7079 40.5596 28.7079 39.2882V25.1528C28.7079 22.5725 28.3527 20.7028 27.6422 19.5435C26.9316 18.3469 25.8659 17.7485 24.4449 17.7485C23.8465 17.7485 23.136 17.9168 22.3133 18.2534C21.4906 18.5525 20.668 19.1135 19.8453 19.9362C19.06 20.7589 18.3681 21.9742 17.7698 23.5822V39.2882C17.7698 40.5596 17.8259 41.3262 17.9381 41.588C18.0503 41.8124 18.4055 41.9619 19.0039 42.0367L22.089 42.4294V44H7V42.4294L10.0851 42.0367C10.6834 41.9619 11.0387 41.8124 11.1509 41.588C11.2631 41.3262 11.3191 40.5596 11.3191 39.2882V20.2727C11.3191 19.0013 11.2631 18.2534 11.1509 18.029C11.0387 17.7672 10.6834 17.599 10.0851 17.5242L7 17.1315V15.5609H17.4333V20.4971C18.4803 18.5899 19.8266 17.2063 21.4719 16.3462C23.1173 15.4487 24.7814 15 26.4642 15C28.4836 15 30.185 15.5235 31.5687 16.5706C32.9897 17.5803 33.9993 19.0387 34.5977 20.9458C35.6073 18.8517 36.9723 17.3372 38.6924 16.4023C40.4126 15.4674 42.1328 15 43.853 15C46.508 15 48.6209 15.8788 50.1915 17.6364C51.7621 19.3939 52.5474 21.8807 52.5474 25.0967V39.2882C52.5474 40.5596 52.6035 41.3262 52.7157 41.588C52.8278 41.8124 53.1831 41.9619 53.7814 42.0367L56.8665 42.4294V44H41.7775V42.4294L44.8627 42.0367C45.461 41.9619 45.8162 41.8124 45.9284 41.588C46.0406 41.3262 46.0967 40.5596 46.0967 39.2882V25.1528C46.0967 22.5725 45.7414 20.7028 45.0309 19.5435C44.3204 18.3469 43.2547 17.7485 41.8336 17.7485C41.2353 17.7485 40.5248 17.9168 39.7021 18.2534C38.8794 18.5525 38.0567 19.1322 37.234 19.9923C36.4113 20.8523 35.7008 22.1051 35.1025 23.7505C35.1399 23.9375 35.1586 24.1618 35.1586 24.4236C35.1586 24.648 35.1586 24.8723 35.1586 25.0967V39.2882C35.1586 40.5596 35.2147 41.3262 35.3269 41.588C35.4391 41.8124 35.7943 41.9619 36.3926 42.0367L39.4777 42.4294Z" fill="white"/>
</svg>
