<svg width="1200" height="630" viewBox="0 0 1200 630" fill="none" xmlns="http://www.w3.org/2000/svg">
<rect width="1200" height="630" fill="#FBF7F3"/>
<path d="M329.091 362.569V373.309H225.909V362.569L247.006 359.884C251.097 359.373 253.526 358.35 254.294 356.816C255.061 355.025 255.444 349.783 255.444 341.089V244.427C255.444 226.783 253.015 213.997 248.156 206.07C243.298 197.887 236.01 193.795 226.292 193.795C222.201 193.795 217.342 194.946 211.717 197.247C206.091 199.293 200.465 203.129 194.839 208.755C189.469 214.381 184.738 222.691 180.647 233.687V341.089C180.647 349.783 181.03 355.025 181.798 356.816C182.565 358.35 184.994 359.373 189.085 359.884L210.182 362.569V373.309H107V362.569L128.097 359.884C132.188 359.373 134.618 358.35 135.385 356.816C136.152 355.025 136.535 349.783 136.535 341.089V211.056C136.535 202.362 136.152 197.247 135.385 195.713C134.618 193.923 132.188 192.772 128.097 192.261L107 189.576V178.836H178.345V212.591C185.505 199.549 194.711 190.087 205.963 184.206C217.214 178.069 228.594 175 240.101 175C253.91 175 265.545 178.58 275.007 185.74C284.724 192.645 291.628 202.618 295.72 215.659C302.624 201.339 311.958 190.982 323.721 184.589C335.484 178.196 347.247 175 359.01 175C377.166 175 391.614 181.009 402.354 193.028C413.094 205.047 418.465 222.052 418.465 244.044V341.089C418.465 349.783 418.848 355.025 419.615 356.816C420.382 358.35 422.812 359.373 426.903 359.884L448 362.569V373.309H344.818V362.569L365.915 359.884C370.006 359.373 372.435 358.35 373.202 356.816C373.97 355.025 374.353 349.783 374.353 341.089V244.427C374.353 226.783 371.924 213.997 367.065 206.07C362.207 197.887 354.919 193.795 345.201 193.795C341.11 193.795 336.251 194.946 330.625 197.247C325 199.293 319.374 203.257 313.748 209.138C308.122 215.02 303.264 223.586 299.172 234.838C299.428 236.117 299.556 237.651 299.556 239.441C299.556 240.975 299.556 242.51 299.556 244.044V341.089C299.556 349.783 299.939 355.025 300.706 356.816C301.474 358.35 303.903 359.373 307.994 359.884L329.091 362.569Z" fill="#1E1E1B"/>
<path d="M606.71 161.598C610.708 159.313 614.253 157.583 617.344 156.407C620.469 155.197 623.023 154.593 625.005 154.593C629.776 154.593 633.354 156.02 635.74 158.876C638.126 161.732 639.318 166.016 639.318 171.728V199.398L640.679 200.96L646.122 201.363V206H620.771V201.363L625.207 200.96L626.618 199.398V174.702C626.618 170.771 625.862 167.932 624.35 166.184C622.871 164.437 620.469 163.564 617.143 163.564C615.933 163.564 614.606 163.732 613.161 164.068C611.75 164.37 610.154 164.857 608.373 165.529V199.398L609.683 200.96L614.371 201.363V206H589.977V201.363L594.211 200.96L595.672 199.196V174.097C595.672 170.435 594.933 167.764 593.455 166.084C591.976 164.404 589.624 163.564 586.399 163.564C585.055 163.564 583.661 163.715 582.216 164.017C580.771 164.32 579.276 164.756 577.73 165.328V199.398L579.141 200.96L583.476 201.363V206H558.175V201.363L563.467 200.96L564.929 199.398V163.765H558.175V159.632L572.741 154.794H577.73V160.892C581.426 158.708 584.635 157.112 587.356 156.104C590.078 155.097 592.497 154.593 594.614 154.593C597.268 154.593 599.604 155.181 601.62 156.356C603.636 157.532 605.332 159.28 606.71 161.598ZM682.511 195.87V179.036C675.724 180.548 671.087 182.195 668.6 183.975C666.114 185.756 664.871 188.175 664.871 191.233C664.871 193.619 665.56 195.517 666.937 196.928C668.315 198.306 670.18 198.994 672.532 198.994C673.842 198.994 675.32 198.742 676.967 198.238C678.647 197.701 680.495 196.911 682.511 195.87ZM682.511 200.103C679.016 202.489 675.841 204.219 672.985 205.294C670.129 206.37 667.391 206.907 664.77 206.907C660.805 206.907 657.563 205.664 655.043 203.178C652.523 200.658 651.263 197.432 651.263 193.501C651.263 188.663 653.111 184.933 656.807 182.312C660.503 179.691 669.121 176.852 682.662 173.795V170.72C682.662 166.991 681.872 164.269 680.293 162.556C678.714 160.842 676.228 159.985 672.834 159.985C672.095 159.985 671.322 160.036 670.516 160.136C669.709 160.237 668.836 160.388 667.895 160.59V170.267H658.369C656.723 170.267 655.513 169.964 654.741 169.36C654.001 168.755 653.632 167.797 653.632 166.487C653.632 163.261 655.799 160.456 660.133 158.07C664.468 155.684 669.793 154.492 676.11 154.492C683.2 154.492 688.189 155.852 691.079 158.574C693.968 161.296 695.413 166.033 695.413 172.787V199.498L696.774 200.96L702.267 201.464V206H683.872L682.511 200.103ZM706.249 206V201.363L711.742 200.96L713.204 199.398V163.765H705.745V159.632L720.915 154.794H725.905L725.451 165.328C727.232 163.446 729.13 161.632 731.146 159.884C733.162 158.104 735.279 156.424 737.497 154.845C738.068 154.744 738.521 154.677 738.857 154.643C739.227 154.609 739.546 154.593 739.815 154.593C740.924 154.593 742.033 154.744 743.141 155.046C744.284 155.315 745.443 155.752 746.619 156.356L745.309 170.62H739.916C739.143 169.343 738.202 168.402 737.093 167.797C736.018 167.192 734.725 166.89 733.213 166.89C732.339 166.89 731.281 167.142 730.037 167.646C728.828 168.116 727.45 168.822 725.905 169.763V199.398L727.417 200.96L734.775 201.363V206H706.249ZM749.29 206V201.464L754.683 200.96L756.094 199.398V138.616H748.584V134.584L764.46 129.746H768.795V179.288H771.063L785.83 162.052L785.124 160.892L780.588 160.388V155.852H801.655V160.388L794.902 161.195L783.159 174.299L799.589 200.96L805.637 201.464V206H785.83V201.968L773.885 182.665H768.795V199.599L770.155 201.061L775.296 201.464V206H749.29ZM844.041 196.172V161.699C842.496 161.195 841.101 160.825 839.858 160.59C838.615 160.321 837.456 160.187 836.38 160.187C831.878 160.187 828.266 161.968 825.545 165.529C822.857 169.091 821.513 173.879 821.513 179.893C821.513 185.605 822.739 190.074 825.192 193.299C827.645 196.525 831.038 198.138 835.372 198.138C836.515 198.138 837.792 197.986 839.203 197.684C840.648 197.348 842.26 196.844 844.041 196.172ZM844.041 138.717H836.481V134.584L851.853 129.746H856.641V199.398L858.052 201.061L863.344 201.464V206H844.041V200.204C840.883 202.522 837.993 204.219 835.372 205.294C832.752 206.37 830.198 206.907 827.712 206.907C821.865 206.907 817.061 204.606 813.297 200.002C809.568 195.366 807.703 189.385 807.703 182.06C807.703 173.828 810.156 167.159 815.061 162.052C820.001 156.944 826.418 154.391 834.314 154.391C835.792 154.391 837.338 154.475 838.951 154.643C840.564 154.811 842.26 155.063 844.041 155.399V138.717ZM895.6 159.985C891.837 159.985 888.897 161.783 886.78 165.378C884.663 168.973 883.605 174.013 883.605 180.498C883.605 187.083 884.646 192.207 886.73 195.87C888.846 199.532 891.769 201.363 895.499 201.363C899.397 201.363 902.404 199.582 904.521 196.021C906.637 192.459 907.696 187.386 907.696 180.8C907.696 174.248 906.621 169.141 904.47 165.479C902.353 161.816 899.397 159.985 895.6 159.985ZM896.003 154.492C903.933 154.492 910.232 156.894 914.903 161.699C919.573 166.47 921.908 172.938 921.908 181.103C921.908 188.831 919.472 195.047 914.6 199.75C909.728 204.454 903.261 206.806 895.197 206.806C887.435 206.806 881.169 204.438 876.398 199.7C871.66 194.929 869.291 188.663 869.291 180.901C869.291 172.938 871.727 166.554 876.599 161.749C881.471 156.911 887.939 154.492 896.003 154.492ZM924.932 155.752H950.535V160.489L945.495 161.195L944.336 162.656L952.702 192.392L964.748 155.752H975.08L986.369 192.392L995.441 162.556L994.685 161.094L989.242 160.489V155.752H1008.75V160.489L1002.95 161.195L988.94 206H978.507L967.066 168.956L954.769 206H944.437L931.131 161.094L924.932 160.489V155.752ZM1010.66 206V201.363L1015.95 200.96L1017.42 199.398V163.765H1010.36V159.632L1025.23 154.794H1030.22V160.892C1034.15 158.708 1037.54 157.112 1040.4 156.104C1043.25 155.097 1045.74 154.593 1047.86 154.593C1052.56 154.593 1056.07 156.004 1058.39 158.826C1060.71 161.648 1061.87 165.949 1061.87 171.728V199.398L1063.23 200.96L1068.67 201.363V206H1043.42V201.363L1047.86 200.96L1049.27 199.398V174.702C1049.27 170.872 1048.53 168.066 1047.05 166.285C1045.57 164.471 1043.22 163.564 1039.99 163.564C1038.75 163.564 1037.31 163.715 1035.66 164.017C1034.05 164.32 1032.23 164.756 1030.22 165.328V199.398L1031.63 200.96L1036.16 201.363V206H1010.66ZM580.346 247.953L581.669 249.776C579.787 250.913 578.376 252.168 577.435 253.54C576.494 254.912 576.023 256.412 576.023 258.038C576.023 258.274 576.023 258.46 576.023 258.597C576.043 258.734 576.063 258.862 576.082 258.979H579.699C580.091 259.469 580.375 259.96 580.552 260.45C580.748 260.94 580.846 261.459 580.846 262.008C580.846 263.243 580.454 264.252 579.669 265.037C578.885 265.821 577.866 266.213 576.612 266.213C575.043 266.213 573.769 265.644 572.789 264.507C571.809 263.351 571.319 261.832 571.319 259.95C571.319 257.401 572.093 255.098 573.642 253.04C575.21 250.962 577.445 249.266 580.346 247.953ZM567.055 247.953L568.379 249.776C566.497 250.893 565.076 252.148 564.115 253.54C563.174 254.932 562.704 256.431 562.704 258.038C562.704 258.293 562.704 258.489 562.704 258.627C562.723 258.744 562.743 258.862 562.762 258.979H566.438C566.81 259.411 567.085 259.881 567.261 260.391C567.438 260.881 567.526 261.439 567.526 262.067C567.526 263.302 567.144 264.301 566.379 265.066C565.634 265.83 564.635 266.213 563.38 266.213C561.773 266.213 560.469 265.644 559.469 264.507C558.489 263.37 557.999 261.871 557.999 260.009C557.999 257.421 558.773 255.098 560.322 253.04C561.89 250.962 564.135 249.266 567.055 247.953ZM607.426 261.39V269.418H603.81L603.222 264.889L602.487 264.213C601.82 263.9 601.154 263.664 600.487 263.508C599.821 263.351 599.164 263.272 598.517 263.272C597.066 263.272 595.939 263.596 595.136 264.243C594.332 264.87 593.93 265.752 593.93 266.889C593.93 267.83 594.244 268.643 594.871 269.329C595.498 270.015 597.057 270.966 599.546 272.182L599.664 272.24C605.446 275.024 608.338 277.856 608.338 280.738C608.338 283.815 607.24 286.246 605.045 288.03C602.869 289.794 599.87 290.676 596.047 290.676C594.557 290.676 592.979 290.549 591.313 290.294C589.667 290.039 587.932 289.657 586.109 289.147V280.238H589.725L590.431 285.413L591.049 286.089C591.833 286.501 592.646 286.815 593.489 287.03C594.332 287.246 595.204 287.354 596.106 287.354C597.694 287.354 598.938 286.971 599.84 286.207C600.762 285.423 601.222 284.355 601.222 283.002C601.222 281.297 599.487 279.66 596.018 278.092C594.842 277.562 593.93 277.131 593.283 276.798C590.794 275.563 589.039 274.348 588.02 273.152C587.02 271.937 586.52 270.506 586.52 268.859C586.52 266.173 587.589 264.007 589.725 262.361C591.882 260.714 594.753 259.891 598.341 259.891C599.87 259.891 601.389 260.018 602.898 260.273C604.408 260.508 605.917 260.881 607.426 261.39ZM610.337 260.744H625.627V263.331L622.569 263.684L621.952 264.537L628.45 281.561L635.007 264.595L634.477 263.684L631.302 263.331V260.744H642.857V263.331L639.594 263.86L627.979 292.117C626.548 295.567 624.833 298.272 622.834 300.232C620.834 302.212 618.815 303.202 616.777 303.202C615.365 303.202 614.15 302.751 613.131 301.85C612.111 300.967 611.602 299.929 611.602 298.733C611.602 297.87 611.866 297.067 612.395 296.322C612.944 295.596 613.719 294.979 614.718 294.469L619.952 298.057C620.775 297.41 621.579 296.459 622.363 295.204C623.167 293.969 623.931 292.48 624.657 290.735L613.954 263.86L610.337 263.331V260.744ZM643.475 290V287.295L646.562 287.06L647.415 286.148V265.36H643.298V262.949L651.972 260.126H654.883V263.684C657.177 262.41 659.157 261.479 660.823 260.891C662.489 260.303 663.94 260.009 665.175 260.009C667.919 260.009 669.967 260.832 671.32 262.478C672.672 264.125 673.349 266.634 673.349 270.006V286.148L674.143 287.06L677.318 287.295V290H662.587V287.295L665.175 287.06L665.998 286.148V271.74C665.998 269.506 665.567 267.869 664.704 266.83C663.842 265.772 662.469 265.242 660.588 265.242C659.862 265.242 659.019 265.331 658.059 265.507C657.118 265.683 656.06 265.938 654.883 266.271V286.148L655.707 287.06L658.353 287.295V290H643.475ZM706.016 287.295C704.036 288.373 702.115 289.177 700.253 289.706C698.391 290.216 696.519 290.47 694.637 290.47C690.324 290.47 686.835 289.108 684.169 286.383C681.523 283.659 680.2 280.091 680.2 275.681C680.2 271.113 681.65 267.369 684.551 264.448C687.472 261.528 691.197 260.067 695.725 260.067C698.685 260.067 701.076 260.685 702.899 261.92C704.742 263.135 705.663 264.703 705.663 266.624C705.663 267.82 705.251 268.81 704.428 269.594C703.624 270.359 702.595 270.741 701.341 270.741C700.655 270.741 700.018 270.653 699.43 270.476C698.861 270.28 698.312 269.986 697.783 269.594V263.213C697.45 263.135 697.156 263.086 696.901 263.066C696.666 263.027 696.45 263.008 696.254 263.008C694.019 263.008 692.147 264.066 690.638 266.183C689.129 268.281 688.374 270.956 688.374 274.21C688.374 277.778 689.207 280.591 690.873 282.649C692.539 284.707 694.803 285.737 697.665 285.737C698.959 285.737 700.312 285.511 701.723 285.06C703.134 284.59 704.565 283.904 706.016 283.002V287.295ZM724.246 266.213L722.982 264.419C724.824 263.282 726.216 262.028 727.157 260.655C728.098 259.283 728.568 257.803 728.568 256.215C728.568 255.941 728.559 255.735 728.539 255.598C728.539 255.441 728.529 255.304 728.509 255.186H724.893C724.52 254.775 724.236 254.324 724.04 253.834C723.864 253.324 723.776 252.775 723.776 252.187C723.776 250.913 724.148 249.894 724.893 249.129C725.657 248.345 726.667 247.953 727.921 247.953C729.529 247.953 730.823 248.531 731.803 249.688C732.783 250.825 733.273 252.315 733.273 254.157C733.273 256.745 732.489 259.087 730.921 261.185C729.352 263.263 727.128 264.938 724.246 266.213ZM710.926 266.213L709.662 264.419C711.544 263.282 712.955 262.018 713.896 260.626C714.857 259.234 715.337 257.744 715.337 256.157C715.337 255.902 715.327 255.706 715.307 255.569C715.288 255.431 715.258 255.314 715.219 255.216L711.603 255.186C711.21 254.775 710.916 254.314 710.72 253.804C710.544 253.295 710.456 252.736 710.456 252.128C710.456 250.893 710.838 249.894 711.603 249.129C712.387 248.345 713.406 247.953 714.66 247.953C716.268 247.953 717.552 248.522 718.512 249.659C719.492 250.795 719.983 252.295 719.983 254.157C719.983 256.764 719.189 259.117 717.601 261.214C716.033 263.312 713.808 264.978 710.926 266.213ZM754.796 290V287.236L757.825 286.942L758.677 285.972V265.066H754.796V262.772L758.677 260.979C758.677 258.058 759.177 255.51 760.177 253.334C761.196 251.158 762.735 249.306 764.793 247.777C765.891 246.973 767.057 246.356 768.292 245.924C769.547 245.473 770.811 245.248 772.085 245.248C773.81 245.248 775.183 245.65 776.202 246.454C777.241 247.257 777.76 248.326 777.76 249.659C777.76 250.482 777.456 251.217 776.849 251.864C776.261 252.491 775.398 253.001 774.261 253.393L768.41 248.218C767.626 249.021 767.038 250.188 766.646 251.717C766.254 253.246 766.058 255.128 766.058 257.362V257.833V261.449H774.261V265.066H766.058V286.031L767.028 286.942L771.056 287.236V290H754.796ZM775.202 290V287.295L778.407 287.06L779.26 286.148V265.36H774.908V262.949L783.759 260.126H786.669L786.405 266.271C787.444 265.174 788.551 264.115 789.727 263.096C790.904 262.057 792.138 261.077 793.432 260.156C793.765 260.097 794.03 260.058 794.226 260.038C794.442 260.018 794.628 260.009 794.785 260.009C795.432 260.009 796.079 260.097 796.725 260.273C797.392 260.43 798.068 260.685 798.754 261.038L797.99 269.359H794.844C794.393 268.614 793.844 268.065 793.197 267.712C792.57 267.359 791.815 267.183 790.933 267.183C790.423 267.183 789.806 267.33 789.081 267.624C788.375 267.898 787.571 268.31 786.669 268.859V286.148L787.552 287.06L791.844 287.295V290H775.202ZM819.454 284.09V274.269C815.495 275.151 812.789 276.112 811.339 277.151C809.888 278.19 809.163 279.601 809.163 281.385C809.163 282.777 809.565 283.884 810.369 284.707C811.172 285.511 812.26 285.913 813.632 285.913C814.397 285.913 815.259 285.766 816.22 285.472C817.2 285.158 818.278 284.698 819.454 284.09ZM819.454 286.56C817.416 287.952 815.563 288.961 813.897 289.588C812.231 290.216 810.633 290.529 809.104 290.529C806.791 290.529 804.9 289.804 803.429 288.353C801.959 286.883 801.224 285.001 801.224 282.708C801.224 279.885 802.302 277.709 804.459 276.18C806.615 274.651 811.643 272.995 819.542 271.211V269.418C819.542 267.242 819.082 265.654 818.16 264.654C817.239 263.655 815.789 263.155 813.809 263.155C813.378 263.155 812.927 263.184 812.456 263.243C811.986 263.302 811.476 263.39 810.927 263.508V269.153H805.37C804.409 269.153 803.704 268.977 803.253 268.624C802.822 268.271 802.606 267.712 802.606 266.948C802.606 265.066 803.87 263.429 806.399 262.037C808.928 260.646 812.035 259.95 815.72 259.95C819.856 259.95 822.767 260.744 824.453 262.331C826.139 263.919 826.982 266.683 826.982 270.623V286.207L827.775 287.06L830.98 287.354V290H820.248L819.454 286.56ZM861.736 264.096C864.069 262.763 866.137 261.753 867.94 261.067C869.763 260.361 871.253 260.009 872.41 260.009C875.193 260.009 877.281 260.842 878.673 262.508C880.064 264.174 880.76 266.673 880.76 270.006V286.148L881.554 287.06L884.73 287.295V290H869.94V287.295L872.527 287.06L873.351 286.148V271.74C873.351 269.447 872.91 267.791 872.028 266.771C871.165 265.752 869.763 265.242 867.823 265.242C867.117 265.242 866.343 265.34 865.5 265.536C864.677 265.713 863.746 265.997 862.707 266.389V286.148L863.471 287.06L866.206 287.295V290H851.974V287.295L854.444 287.06L855.297 286.031V271.388C855.297 269.251 854.866 267.693 854.003 266.713C853.141 265.732 851.769 265.242 849.887 265.242C849.103 265.242 848.289 265.331 847.446 265.507C846.603 265.683 845.731 265.938 844.829 266.271V286.148L845.653 287.06L848.181 287.295V290H833.421V287.295L836.508 287.06L837.361 286.148V265.36H833.421V262.949L841.918 260.126H844.829V263.684C846.986 262.41 848.858 261.479 850.445 260.891C852.033 260.303 853.445 260.009 854.68 260.009C856.228 260.009 857.59 260.352 858.767 261.038C859.943 261.724 860.933 262.743 861.736 264.096ZM907.047 271.446V270.8C907.047 268.349 906.596 266.477 905.694 265.184C904.793 263.87 903.499 263.213 901.813 263.213C899.971 263.213 898.491 263.949 897.373 265.419C896.256 266.869 895.648 268.879 895.55 271.446H907.047ZM914.957 282.532V287.001C912.898 288.177 910.82 289.059 908.723 289.647C906.626 290.235 904.528 290.529 902.431 290.529C897.942 290.529 894.335 289.147 891.61 286.383C888.905 283.619 887.553 279.964 887.553 275.416C887.553 270.849 888.934 267.124 891.698 264.243C894.482 261.341 898.059 259.891 902.431 259.891C906.39 259.891 909.468 261.087 911.663 263.478C913.859 265.85 914.957 269.192 914.957 273.505V274.651H895.256V274.828C895.256 278.258 896.119 280.954 897.844 282.914C899.569 284.874 901.941 285.854 904.959 285.854C906.547 285.854 908.164 285.58 909.811 285.031C911.458 284.482 913.173 283.649 914.957 282.532ZM916.838 260.685H931.775V263.449L928.835 263.86L928.159 264.713L933.04 282.061L940.067 260.685H946.095L952.681 282.061L957.974 264.654L957.533 263.802L954.357 263.449V260.685H965.736V263.449L962.355 263.86L954.181 290H948.094L941.42 268.388L934.245 290H928.217L920.455 263.802L916.838 263.449V260.685ZM982.584 263.155C980.389 263.155 978.674 264.203 977.439 266.301C976.204 268.398 975.586 271.339 975.586 275.122C975.586 278.964 976.194 281.953 977.409 284.09C978.644 286.227 980.35 287.295 982.526 287.295C984.799 287.295 986.554 286.256 987.789 284.178C989.024 282.1 989.641 279.14 989.641 275.298C989.641 271.476 989.014 268.496 987.759 266.36C986.524 264.223 984.799 263.155 982.584 263.155ZM982.82 259.95C987.446 259.95 991.121 261.351 993.846 264.154C996.571 266.938 997.933 270.711 997.933 275.475C997.933 279.983 996.512 283.61 993.669 286.354C990.827 289.098 987.054 290.47 982.349 290.47C977.821 290.47 974.165 289.088 971.382 286.325C968.618 283.541 967.236 279.885 967.236 275.357C967.236 270.711 968.657 266.987 971.499 264.184C974.342 261.361 978.115 259.95 982.82 259.95ZM1001.49 290V287.295L1004.7 287.06L1005.55 286.148V265.36H1001.2V262.949L1010.05 260.126H1012.96L1012.69 266.271C1013.73 265.174 1014.84 264.115 1016.02 263.096C1017.19 262.057 1018.43 261.077 1019.72 260.156C1020.05 260.097 1020.32 260.058 1020.51 260.038C1020.73 260.018 1020.92 260.009 1021.07 260.009C1021.72 260.009 1022.37 260.097 1023.01 260.273C1023.68 260.43 1024.36 260.685 1025.04 261.038L1024.28 269.359H1021.13C1020.68 268.614 1020.13 268.065 1019.49 267.712C1018.86 267.359 1018.1 267.183 1017.22 267.183C1016.71 267.183 1016.09 267.33 1015.37 267.624C1014.66 267.898 1013.86 268.31 1012.96 268.859V286.148L1013.84 287.06L1018.13 287.295V290H1001.49ZM1026.6 290V287.354L1029.75 287.06L1030.57 286.148V250.688H1026.19V248.335L1035.45 245.513H1037.98V274.416H1039.3L1047.92 264.36L1047.51 263.684L1044.86 263.39V260.744H1057.15V263.39L1053.21 263.86L1046.36 271.505L1055.95 287.06L1059.47 287.354V290H1047.92V287.648L1040.95 276.386H1037.98V286.266L1038.77 287.118L1041.77 287.354V290H1026.6Z" fill="black"/>
<path d="M564.203 362.229L561.509 369.888H566.973L564.203 362.229ZM563.522 357.975H566.776L573.906 377.168L575.737 377.486V379H567.367V377.486L569.319 377.29L569.546 376.896L567.685 371.628H560.918L559.057 376.866L559.375 377.259L561.327 377.486V379H554.652V377.486L556.514 377.199L563.522 357.975ZM576.146 379V377.607L577.735 377.486L578.174 377.017V366.315H576.055V365.074L580.521 363.621H582.019V365.453C583.2 364.797 584.219 364.317 585.077 364.015C585.934 363.712 586.681 363.561 587.317 363.561C588.73 363.561 589.784 363.984 590.48 364.832C591.177 365.68 591.525 366.971 591.525 368.707V377.017L591.934 377.486L593.568 377.607V379H585.985V377.607L587.317 377.486L587.741 377.017V369.6C587.741 368.45 587.519 367.607 587.075 367.072C586.631 366.527 585.924 366.255 584.956 366.255C584.582 366.255 584.148 366.3 583.654 366.391C583.169 366.482 582.625 366.613 582.019 366.785V377.017L582.443 377.486L583.805 377.607V379H576.146ZM612.035 365.18C610.905 365.18 610.022 365.72 609.386 366.8C608.75 367.88 608.433 369.393 608.433 371.341C608.433 373.319 608.745 374.858 609.371 375.958C610.007 377.057 610.885 377.607 612.005 377.607C613.175 377.607 614.079 377.073 614.714 376.003C615.35 374.933 615.668 373.41 615.668 371.432C615.668 369.464 615.345 367.93 614.699 366.83C614.063 365.73 613.175 365.18 612.035 365.18ZM612.156 363.53C614.538 363.53 616.43 364.252 617.833 365.695C619.235 367.128 619.937 369.07 619.937 371.522C619.937 373.843 619.205 375.71 617.742 377.123C616.278 378.536 614.336 379.242 611.914 379.242C609.583 379.242 607.701 378.531 606.268 377.108C604.845 375.675 604.134 373.793 604.134 371.462C604.134 369.07 604.865 367.153 606.329 365.71C607.792 364.257 609.734 363.53 612.156 363.53ZM627.475 377.138C627.808 377.209 628.136 377.264 628.458 377.305C628.792 377.335 629.125 377.35 629.458 377.35C630.85 377.35 631.955 376.81 632.772 375.73C633.6 374.651 634.014 373.198 634.014 371.371C634.014 369.746 633.65 368.48 632.924 367.572C632.207 366.653 631.208 366.194 629.927 366.194C629.594 366.194 629.225 366.245 628.822 366.346C628.428 366.437 627.979 366.583 627.475 366.785V377.138ZM621.586 385.796V384.358L623.267 384.207L623.69 383.738V366.315H621.586V365.074L626.082 363.621H627.475V365.483C628.453 364.807 629.336 364.312 630.124 364C630.911 363.687 631.662 363.53 632.379 363.53C634.064 363.53 635.462 364.222 636.572 365.604C637.682 366.976 638.237 368.722 638.237 370.841C638.237 373.324 637.495 375.307 636.012 376.79C634.528 378.263 632.53 379 630.018 379C629.594 379 629.17 378.99 628.746 378.97C628.332 378.939 627.914 378.899 627.49 378.849L627.475 383.798L627.944 384.237L629.866 384.358V385.796H621.586ZM650.376 369.449V369.116C650.376 367.854 650.144 366.891 649.68 366.225C649.216 365.549 648.55 365.21 647.682 365.21C646.734 365.21 645.972 365.589 645.396 366.346C644.821 367.092 644.508 368.127 644.458 369.449H650.376ZM654.448 375.155V377.456C653.389 378.062 652.319 378.516 651.239 378.818C650.16 379.121 649.08 379.272 648 379.272C645.689 379.272 643.832 378.561 642.43 377.138C641.037 375.715 640.341 373.833 640.341 371.492C640.341 369.141 641.052 367.224 642.475 365.74C643.908 364.247 645.75 363.5 648 363.5C650.038 363.5 651.623 364.116 652.753 365.347C653.883 366.568 654.448 368.288 654.448 370.508V371.099H644.307V371.189C644.307 372.955 644.751 374.343 645.639 375.352C646.527 376.361 647.748 376.866 649.302 376.866C650.119 376.866 650.952 376.724 651.799 376.442C652.647 376.159 653.53 375.73 654.448 375.155ZM656.401 379V377.607L657.99 377.486L658.429 377.017V366.315H656.31V365.074L660.775 363.621H662.274V365.453C663.455 364.797 664.474 364.317 665.332 364.015C666.189 363.712 666.936 363.561 667.572 363.561C668.985 363.561 670.039 363.984 670.735 364.832C671.432 365.68 671.78 366.971 671.78 368.707V377.017L672.188 377.486L673.823 377.607V379H666.24V377.607L667.572 377.486L667.996 377.017V369.6C667.996 368.45 667.774 367.607 667.33 367.072C666.886 366.527 666.179 366.255 665.21 366.255C664.837 366.255 664.403 366.3 663.909 366.391C663.424 366.482 662.879 366.613 662.274 366.785V377.017L662.698 377.486L664.06 377.607V379H656.401ZM675.337 370.009H683.208V373.051H675.337V370.009ZM696.574 364.272V368.404H694.712L694.409 366.073L694.031 365.725C693.688 365.564 693.345 365.443 693.001 365.362C692.658 365.281 692.32 365.241 691.987 365.241C691.241 365.241 690.66 365.407 690.247 365.74C689.833 366.063 689.626 366.517 689.626 367.103C689.626 367.587 689.787 368.006 690.11 368.359C690.433 368.712 691.236 369.201 692.517 369.827L692.578 369.857C695.555 371.29 697.043 372.749 697.043 374.232C697.043 375.816 696.478 377.068 695.348 377.986C694.228 378.894 692.684 379.348 690.716 379.348C689.949 379.348 689.137 379.283 688.279 379.151C687.431 379.02 686.538 378.823 685.6 378.561V373.975H687.461L687.825 376.639L688.143 376.987C688.546 377.199 688.965 377.36 689.399 377.471C689.833 377.582 690.282 377.638 690.746 377.638C691.563 377.638 692.204 377.441 692.668 377.047C693.143 376.644 693.38 376.094 693.38 375.397C693.38 374.52 692.487 373.677 690.701 372.87C690.095 372.597 689.626 372.375 689.293 372.204C688.011 371.568 687.108 370.942 686.583 370.327C686.069 369.701 685.812 368.964 685.812 368.117C685.812 366.734 686.361 365.619 687.461 364.771C688.571 363.924 690.05 363.5 691.896 363.5C692.684 363.5 693.466 363.566 694.243 363.697C695.02 363.818 695.797 364.01 696.574 364.272ZM707.245 365.18C706.115 365.18 705.232 365.72 704.596 366.8C703.96 367.88 703.643 369.393 703.643 371.341C703.643 373.319 703.955 374.858 704.581 375.958C705.217 377.057 706.095 377.607 707.215 377.607C708.385 377.607 709.289 377.073 709.924 376.003C710.56 374.933 710.878 373.41 710.878 371.432C710.878 369.464 710.555 367.93 709.909 366.83C709.273 365.73 708.385 365.18 707.245 365.18ZM707.366 363.53C709.748 363.53 711.64 364.252 713.042 365.695C714.445 367.128 715.146 369.07 715.146 371.522C715.146 373.843 714.415 375.71 712.952 377.123C711.488 378.536 709.546 379.242 707.124 379.242C704.793 379.242 702.911 378.531 701.478 377.108C700.055 375.675 699.344 373.793 699.344 371.462C699.344 369.07 700.075 367.153 701.539 365.71C703.002 364.257 704.944 363.53 707.366 363.53ZM721.171 363.53H722.654V373.142C722.654 374.373 722.881 375.261 723.335 375.806C723.8 376.341 724.556 376.608 725.606 376.608C725.959 376.608 726.348 376.573 726.771 376.502C727.205 376.422 727.705 376.296 728.27 376.124V366.225H726.257V364.983L730.662 363.53H732.084V377.017L732.508 377.486L734.128 377.607V379H728.27V377.29C727.19 377.996 726.237 378.506 725.409 378.818C724.592 379.121 723.81 379.272 723.063 379.272C721.63 379.272 720.56 378.839 719.854 377.971C719.158 377.103 718.81 375.771 718.81 373.975V366.225H716.796V364.983L721.171 363.53ZM735.596 379V377.607L737.246 377.486L737.685 377.017V366.315H735.445V365.074L740.001 363.621H741.5L741.363 366.785C741.898 366.22 742.468 365.675 743.074 365.15C743.679 364.615 744.315 364.111 744.981 363.636C745.153 363.606 745.289 363.586 745.39 363.576C745.501 363.566 745.597 363.561 745.677 363.561C746.01 363.561 746.343 363.606 746.676 363.697C747.019 363.778 747.368 363.909 747.721 364.09L747.327 368.374H745.708C745.475 367.991 745.193 367.708 744.86 367.526C744.537 367.345 744.148 367.254 743.694 367.254C743.432 367.254 743.114 367.33 742.741 367.481C742.377 367.622 741.964 367.834 741.5 368.117V377.017L741.954 377.486L744.164 377.607V379H735.596ZM762.131 377.607C761.112 378.162 760.123 378.576 759.164 378.849C758.205 379.111 757.242 379.242 756.273 379.242C754.053 379.242 752.257 378.541 750.884 377.138C749.522 375.736 748.841 373.899 748.841 371.628C748.841 369.277 749.588 367.35 751.081 365.846C752.585 364.343 754.502 363.591 756.833 363.591C758.357 363.591 759.588 363.909 760.526 364.544C761.475 365.17 761.949 365.977 761.949 366.966C761.949 367.582 761.737 368.091 761.313 368.495C760.9 368.889 760.37 369.085 759.724 369.085C759.371 369.085 759.043 369.04 758.74 368.949C758.448 368.848 758.165 368.697 757.893 368.495V365.21C757.721 365.17 757.57 365.145 757.438 365.135C757.317 365.115 757.206 365.104 757.105 365.104C755.955 365.104 754.991 365.649 754.214 366.739C753.437 367.819 753.049 369.196 753.049 370.872C753.049 372.708 753.478 374.156 754.335 375.216C755.193 376.275 756.359 376.805 757.832 376.805C758.498 376.805 759.194 376.689 759.921 376.457C760.647 376.215 761.384 375.862 762.131 375.397V377.607ZM773.71 369.449V369.116C773.71 367.854 773.478 366.891 773.014 366.225C772.55 365.549 771.884 365.21 771.016 365.21C770.068 365.21 769.306 365.589 768.73 366.346C768.155 367.092 767.842 368.127 767.792 369.449H773.71ZM777.782 375.155V377.456C776.723 378.062 775.653 378.516 774.573 378.818C773.493 379.121 772.414 379.272 771.334 379.272C769.023 379.272 767.166 378.561 765.764 377.138C764.371 375.715 763.675 373.833 763.675 371.492C763.675 369.141 764.386 367.224 765.809 365.74C767.242 364.247 769.084 363.5 771.334 363.5C773.372 363.5 774.957 364.116 776.087 365.347C777.217 366.568 777.782 368.288 777.782 370.508V371.099H767.641V371.189C767.641 372.955 768.085 374.343 768.973 375.352C769.861 376.361 771.082 376.866 772.636 376.866C773.453 376.866 774.286 376.724 775.133 376.442C775.981 376.159 776.864 375.73 777.782 375.155ZM794.402 377.138C794.735 377.209 795.063 377.264 795.386 377.305C795.719 377.335 796.052 377.35 796.385 377.35C797.778 377.35 798.883 376.81 799.7 375.73C800.528 374.651 800.941 373.198 800.941 371.371C800.941 369.746 800.578 368.48 799.852 367.572C799.135 366.653 798.136 366.194 796.854 366.194C796.521 366.194 796.153 366.245 795.75 366.346C795.356 366.437 794.907 366.583 794.402 366.785V377.138ZM788.514 385.796V384.358L790.194 384.207L790.618 383.738V366.315H788.514V365.074L793.01 363.621H794.402V365.483C795.381 364.807 796.264 364.312 797.051 364C797.838 363.687 798.59 363.53 799.307 363.53C800.992 363.53 802.389 364.222 803.5 365.604C804.61 366.976 805.165 368.722 805.165 370.841C805.165 373.324 804.423 375.307 802.939 376.79C801.456 378.263 799.458 379 796.945 379C796.521 379 796.098 378.99 795.674 378.97C795.26 378.939 794.841 378.899 794.417 378.849L794.402 383.798L794.872 384.237L796.794 384.358V385.796H788.514ZM811.204 363.53H812.688V373.142C812.688 374.373 812.915 375.261 813.369 375.806C813.833 376.341 814.59 376.608 815.639 376.608C815.992 376.608 816.381 376.573 816.805 376.502C817.239 376.422 817.738 376.296 818.303 376.124V366.225H816.29V364.983L820.695 363.53H822.118V377.017L822.542 377.486L824.161 377.607V379H818.303V377.29C817.223 377.996 816.27 378.506 815.442 378.818C814.625 379.121 813.843 379.272 813.096 379.272C811.663 379.272 810.594 378.839 809.887 377.971C809.191 377.103 808.843 375.771 808.843 373.975V366.225H806.83V364.983L811.204 363.53ZM831.094 377.32C831.205 377.33 831.331 377.34 831.472 377.35C831.613 377.35 831.815 377.35 832.078 377.35C833.955 377.35 835.332 376.871 836.21 375.912C837.098 374.943 837.542 373.44 837.542 371.401C837.542 369.656 837.153 368.319 836.376 367.39C835.599 366.452 834.489 365.982 833.046 365.982C832.784 365.982 832.491 366.003 832.168 366.043C831.856 366.083 831.497 366.144 831.094 366.225V377.32ZM829.61 356.098H831.094V364.953C831.941 364.479 832.734 364.131 833.47 363.909C834.207 363.677 834.913 363.561 835.589 363.561C837.375 363.561 838.839 364.216 839.979 365.528C841.119 366.84 841.689 368.53 841.689 370.599C841.689 372.395 841.271 373.949 840.433 375.261C839.606 376.563 838.395 377.572 836.8 378.289C836.235 378.531 835.519 378.712 834.651 378.833C833.793 378.944 832.754 379 831.533 379H830.685L827.249 378.939V358.762H825.009V357.551L829.61 356.098ZM843.339 379V377.638L845.141 377.456L845.58 377.017V358.792H843.339V357.551L848.017 356.098H849.379V376.957L849.848 377.456L851.649 377.638V379H843.339ZM857.432 363.621H858.93V377.017L859.384 377.486L861.125 377.607V379H852.997V377.607L854.677 377.486L855.116 377.017V366.315H853.072V365.074L857.432 363.621ZM857.099 356.552C857.775 356.552 858.33 356.769 858.764 357.203C859.198 357.627 859.415 358.167 859.415 358.823C859.415 359.509 859.198 360.074 858.764 360.518C858.34 360.952 857.795 361.169 857.129 361.169C856.483 361.169 855.943 360.952 855.509 360.518C855.075 360.084 854.858 359.539 854.858 358.883C854.858 358.217 855.07 357.662 855.494 357.218C855.928 356.774 856.463 356.552 857.099 356.552ZM873.794 364.272V368.404H871.933L871.63 366.073L871.251 365.725C870.908 365.564 870.565 365.443 870.222 365.362C869.879 365.281 869.541 365.241 869.208 365.241C868.461 365.241 867.881 365.407 867.467 365.74C867.054 366.063 866.847 366.517 866.847 367.103C866.847 367.587 867.008 368.006 867.331 368.359C867.654 368.712 868.456 369.201 869.738 369.827L869.798 369.857C872.775 371.29 874.264 372.749 874.264 374.232C874.264 375.816 873.699 377.068 872.568 377.986C871.448 378.894 869.904 379.348 867.937 379.348C867.17 379.348 866.357 379.283 865.5 379.151C864.652 379.02 863.759 378.823 862.82 378.561V373.975H864.682L865.045 376.639L865.363 376.987C865.767 377.199 866.186 377.36 866.62 377.471C867.054 377.582 867.503 377.638 867.967 377.638C868.784 377.638 869.425 377.441 869.889 377.047C870.363 376.644 870.601 376.094 870.601 375.397C870.601 374.52 869.708 373.677 867.921 372.87C867.316 372.597 866.847 372.375 866.514 372.204C865.232 371.568 864.329 370.942 863.804 370.327C863.29 369.701 863.032 368.964 863.032 368.117C863.032 366.734 863.582 365.619 864.682 364.771C865.792 363.924 867.271 363.5 869.117 363.5C869.904 363.5 870.686 363.566 871.463 363.697C872.24 363.818 873.017 364.01 873.794 364.272ZM880.5 356.098H881.983V365.453C883.225 364.777 884.259 364.292 885.086 364C885.924 363.707 886.656 363.561 887.281 363.561C888.714 363.561 889.779 363.989 890.475 364.847C891.181 365.695 891.535 366.981 891.535 368.707V377.017L891.943 377.486L893.578 377.607V379H885.979V377.607L887.312 377.486L887.75 377.017V369.6C887.75 368.45 887.523 367.607 887.069 367.072C886.625 366.527 885.924 366.255 884.965 366.255C884.572 366.255 884.128 366.3 883.633 366.391C883.149 366.482 882.599 366.613 881.983 366.785V377.017L882.453 377.486L883.815 377.607V379H876.156V377.607L877.745 377.486L878.169 377.017V358.762H875.914V357.551L880.5 356.098ZM899.3 363.621H900.798V377.017L901.252 377.486L902.993 377.607V379H894.865V377.607L896.545 377.486L896.984 377.017V366.315H894.94V365.074L899.3 363.621ZM898.967 356.552C899.643 356.552 900.198 356.769 900.632 357.203C901.066 357.627 901.283 358.167 901.283 358.823C901.283 359.509 901.066 360.074 900.632 360.518C900.208 360.952 899.663 361.169 898.997 361.169C898.351 361.169 897.811 360.952 897.377 360.518C896.944 360.084 896.727 359.539 896.727 358.883C896.727 358.217 896.938 357.662 897.362 357.218C897.796 356.774 898.331 356.552 898.967 356.552ZM904.371 379V377.607L905.96 377.486L906.399 377.017V366.315H904.28V365.074L908.745 363.621H910.244V365.453C911.424 364.797 912.444 364.317 913.301 364.015C914.159 363.712 914.906 363.561 915.542 363.561C916.954 363.561 918.009 363.984 918.705 364.832C919.401 365.68 919.75 366.971 919.75 368.707V377.017L920.158 377.486L921.793 377.607V379H914.209V377.607L915.542 377.486L915.965 377.017V369.6C915.965 368.45 915.743 367.607 915.299 367.072C914.855 366.527 914.149 366.255 913.18 366.255C912.807 366.255 912.373 366.3 911.878 366.391C911.394 366.482 910.849 366.613 910.244 366.785V377.017L910.667 377.486L912.03 377.607V379H904.371ZM928.332 378.41C927.898 378.763 927.57 379.156 927.348 379.59C927.126 380.024 927.015 380.488 927.015 380.983C927.015 381.841 927.363 382.572 928.06 383.178C928.756 383.783 929.609 384.086 930.618 384.086C931.687 384.086 932.57 383.803 933.267 383.238C933.963 382.683 934.311 381.992 934.311 381.165C934.311 380.519 934.079 380.024 933.615 379.681C933.161 379.348 932.278 379.071 930.966 378.849L928.332 378.41ZM930.466 365.044C929.669 365.044 929.033 365.372 928.559 366.028C928.095 366.674 927.863 367.547 927.863 368.646C927.863 369.787 928.095 370.7 928.559 371.386C929.023 372.062 929.639 372.4 930.406 372.4C931.153 372.4 931.758 372.057 932.222 371.371C932.686 370.675 932.918 369.757 932.918 368.616C932.918 367.557 932.686 366.699 932.222 366.043C931.768 365.377 931.183 365.044 930.466 365.044ZM934.811 364.499H939.397V366.255H936.037C936.269 366.659 936.44 367.057 936.551 367.451C936.672 367.844 936.733 368.243 936.733 368.646C936.733 370.18 936.132 371.422 934.932 372.37C933.731 373.319 932.136 373.793 930.148 373.793C929.916 373.793 929.735 373.793 929.604 373.793C929.482 373.783 929.366 373.773 929.255 373.763C929.165 373.985 929.099 374.192 929.059 374.383C929.028 374.565 929.013 374.742 929.013 374.913C929.013 375.034 929.018 375.165 929.028 375.307C929.049 375.448 929.074 375.594 929.104 375.746L931.208 376.018C933.761 376.391 935.527 376.896 936.506 377.532C937.495 378.157 937.989 379.061 937.989 380.241C937.989 381.775 937.197 383.072 935.613 384.131C934.028 385.191 932.046 385.721 929.664 385.721C927.666 385.721 926.097 385.337 924.957 384.57C923.816 383.813 923.246 382.784 923.246 381.482C923.246 380.514 923.529 379.727 924.094 379.121C924.659 378.516 925.436 378.162 926.425 378.062C926.294 377.779 926.193 377.512 926.122 377.259C926.062 376.997 926.031 376.75 926.031 376.518C926.031 376.023 926.167 375.544 926.44 375.08C926.712 374.605 927.146 374.106 927.742 373.581C926.5 373.228 925.547 372.648 924.881 371.84C924.225 371.033 923.897 370.059 923.897 368.919C923.897 367.314 924.492 366.028 925.683 365.059C926.884 364.08 928.499 363.591 930.527 363.591C931.213 363.591 931.914 363.667 932.631 363.818C933.347 363.969 934.074 364.196 934.811 364.499ZM949.236 379V377.577L950.795 377.426L951.234 376.926V366.164H949.236V364.983L951.234 364.06C951.234 362.556 951.491 361.245 952.006 360.125C952.531 359.004 953.323 358.051 954.382 357.264C954.947 356.85 955.548 356.532 956.184 356.31C956.829 356.078 957.48 355.962 958.136 355.962C959.024 355.962 959.731 356.169 960.255 356.583C960.79 356.996 961.058 357.546 961.058 358.232C961.058 358.656 960.901 359.035 960.588 359.368C960.286 359.691 959.842 359.953 959.256 360.155L956.244 357.491C955.84 357.904 955.538 358.505 955.336 359.292C955.134 360.079 955.033 361.048 955.033 362.198V362.44V364.302H959.256V366.164H955.033V376.957L955.533 377.426L957.606 377.577V379H949.236ZM959.741 379V377.607L961.391 377.486L961.83 377.017V366.315H959.589V365.074L964.146 363.621H965.644L965.508 366.785C966.043 366.22 966.613 365.675 967.218 365.15C967.824 364.615 968.459 364.111 969.125 363.636C969.297 363.606 969.433 363.586 969.534 363.576C969.645 363.566 969.741 363.561 969.822 363.561C970.155 363.561 970.488 363.606 970.821 363.697C971.164 363.778 971.512 363.909 971.865 364.09L971.472 368.374H969.852C969.62 367.991 969.337 367.708 969.004 367.526C968.681 367.345 968.293 367.254 967.839 367.254C967.576 367.254 967.259 367.33 966.885 367.481C966.522 367.622 966.108 367.834 965.644 368.117V377.017L966.098 377.486L968.308 377.607V379H959.741ZM982.521 375.958V370.902C980.483 371.356 979.09 371.85 978.344 372.385C977.597 372.92 977.224 373.647 977.224 374.565C977.224 375.281 977.431 375.852 977.844 376.275C978.258 376.689 978.818 376.896 979.524 376.896C979.918 376.896 980.362 376.82 980.856 376.669C981.361 376.507 981.916 376.27 982.521 375.958ZM982.521 377.229C981.472 377.945 980.518 378.465 979.661 378.788C978.803 379.111 977.98 379.272 977.193 379.272C976.003 379.272 975.029 378.899 974.272 378.152C973.515 377.396 973.137 376.427 973.137 375.246C973.137 373.793 973.692 372.673 974.802 371.886C975.912 371.099 978.5 370.246 982.567 369.328V368.404C982.567 367.284 982.33 366.467 981.855 365.952C981.381 365.438 980.634 365.18 979.615 365.18C979.393 365.18 979.161 365.195 978.919 365.226C978.677 365.256 978.414 365.301 978.132 365.362V368.268H975.271C974.777 368.268 974.413 368.177 974.181 367.996C973.959 367.814 973.848 367.526 973.848 367.133C973.848 366.164 974.499 365.321 975.801 364.605C977.103 363.889 978.702 363.53 980.599 363.53C982.728 363.53 984.227 363.939 985.095 364.756C985.963 365.574 986.396 366.997 986.396 369.025V377.047L986.805 377.486L988.455 377.638V379H982.93L982.521 377.229ZM1004.29 365.665C1005.49 364.978 1006.55 364.459 1007.48 364.105C1008.42 363.742 1009.19 363.561 1009.78 363.561C1011.22 363.561 1012.29 363.989 1013.01 364.847C1013.72 365.705 1014.08 366.992 1014.08 368.707V377.017L1014.49 377.486L1016.12 377.607V379H1008.51V377.607L1009.84 377.486L1010.27 377.017V369.6C1010.27 368.419 1010.04 367.567 1009.59 367.042C1009.14 366.517 1008.42 366.255 1007.42 366.255C1007.06 366.255 1006.66 366.305 1006.23 366.406C1005.8 366.497 1005.32 366.643 1004.79 366.845V377.017L1005.18 377.486L1006.59 377.607V379H999.263V377.607L1000.53 377.486L1000.97 376.957V369.418C1000.97 368.319 1000.75 367.516 1000.31 367.012C999.863 366.507 999.157 366.255 998.188 366.255C997.784 366.255 997.366 366.3 996.932 366.391C996.498 366.482 996.049 366.613 995.584 366.785V377.017L996.008 377.486L997.31 377.607V379H989.711V377.607L991.301 377.486L991.74 377.017V366.315H989.711V365.074L994.086 363.621H995.584V365.453C996.694 364.797 997.658 364.317 998.476 364.015C999.293 363.712 1000.02 363.561 1000.66 363.561C1001.45 363.561 1002.15 363.737 1002.76 364.09C1003.36 364.444 1003.87 364.968 1004.29 365.665ZM1027.61 369.449V369.116C1027.61 367.854 1027.38 366.891 1026.92 366.225C1026.45 365.549 1025.79 365.21 1024.92 365.21C1023.97 365.21 1023.21 365.589 1022.63 366.346C1022.06 367.092 1021.75 368.127 1021.7 369.449H1027.61ZM1031.69 375.155V377.456C1030.63 378.062 1029.56 378.516 1028.48 378.818C1027.4 379.121 1026.32 379.272 1025.24 379.272C1022.93 379.272 1021.07 378.561 1019.67 377.138C1018.27 375.715 1017.58 373.833 1017.58 371.492C1017.58 369.141 1018.29 367.224 1019.71 365.74C1021.15 364.247 1022.99 363.5 1025.24 363.5C1027.28 363.5 1028.86 364.116 1029.99 365.347C1031.12 366.568 1031.69 368.288 1031.69 370.508V371.099H1021.54V371.189C1021.54 372.955 1021.99 374.343 1022.88 375.352C1023.76 376.361 1024.99 376.866 1026.54 376.866C1027.36 376.866 1028.19 376.724 1029.04 376.442C1029.88 376.159 1030.77 375.73 1031.69 375.155ZM1032.65 363.909H1040.34V365.332L1038.83 365.543L1038.48 365.982L1040.99 374.913L1044.61 363.909H1047.72L1051.11 374.913L1053.83 365.952L1053.6 365.513L1051.97 365.332V363.909H1057.83V365.332L1056.09 365.543L1051.88 379H1048.74L1045.31 367.875L1041.62 379H1038.51L1034.52 365.513L1032.65 365.332V363.909ZM1066.5 365.18C1065.37 365.18 1064.49 365.72 1063.85 366.8C1063.22 367.88 1062.9 369.393 1062.9 371.341C1062.9 373.319 1063.21 374.858 1063.84 375.958C1064.47 377.057 1065.35 377.607 1066.47 377.607C1067.64 377.607 1068.54 377.073 1069.18 376.003C1069.81 374.933 1070.13 373.41 1070.13 371.432C1070.13 369.464 1069.81 367.93 1069.16 366.83C1068.53 365.73 1067.64 365.18 1066.5 365.18ZM1066.62 363.53C1069 363.53 1070.89 364.252 1072.3 365.695C1073.7 367.128 1074.4 369.07 1074.4 371.522C1074.4 373.843 1073.67 375.71 1072.21 377.123C1070.74 378.536 1068.8 379.242 1066.38 379.242C1064.05 379.242 1062.17 378.531 1060.73 377.108C1059.31 375.675 1058.6 373.793 1058.6 371.462C1058.6 369.07 1059.33 367.153 1060.79 365.71C1062.26 364.257 1064.2 363.53 1066.62 363.53ZM1076.23 379V377.607L1077.88 377.486L1078.32 377.017V366.315H1076.08V365.074L1080.64 363.621H1082.14L1082 366.785C1082.53 366.22 1083.1 365.675 1083.71 365.15C1084.32 364.615 1084.95 364.111 1085.62 363.636C1085.79 363.606 1085.93 363.586 1086.03 363.576C1086.14 363.566 1086.23 363.561 1086.31 363.561C1086.65 363.561 1086.98 363.606 1087.31 363.697C1087.66 363.778 1088 363.909 1088.36 364.09L1087.96 368.374H1086.34C1086.11 367.991 1085.83 367.708 1085.5 367.526C1085.17 367.345 1084.79 367.254 1084.33 367.254C1084.07 367.254 1083.75 367.33 1083.38 367.481C1083.01 367.622 1082.6 367.834 1082.14 368.117V377.017L1082.59 377.486L1084.8 377.607V379H1076.23ZM1089.16 379V377.638L1090.78 377.486L1091.2 377.017V358.762H1088.95V357.551L1093.72 356.098H1095.02V370.978H1095.7L1100.13 365.801L1099.92 365.453L1098.56 365.301V363.939H1104.89V365.301L1102.86 365.543L1099.33 369.479L1104.27 377.486L1106.08 377.638V379H1100.13V377.789L1096.55 371.992H1095.02V377.078L1095.43 377.517L1096.97 377.638V379H1089.16ZM555.954 422V420.577L557.513 420.426L557.952 419.926V409.164H555.954V407.983L557.952 407.06C557.952 405.556 558.209 404.245 558.724 403.125C559.248 402.004 560.041 401.051 561.1 400.264C561.665 399.85 562.266 399.532 562.901 399.31C563.547 399.078 564.198 398.962 564.854 398.962C565.742 398.962 566.448 399.169 566.973 399.583C567.508 399.996 567.775 400.546 567.775 401.232C567.775 401.656 567.619 402.035 567.306 402.368C567.003 402.691 566.559 402.953 565.974 403.155L562.962 400.491C562.558 400.904 562.256 401.505 562.054 402.292C561.852 403.079 561.751 404.048 561.751 405.198V405.44V407.302H565.974V409.164H561.751V419.957L562.25 420.426L564.324 420.577V422H555.954ZM574.617 408.18C573.487 408.18 572.604 408.72 571.968 409.8C571.333 410.88 571.015 412.393 571.015 414.341C571.015 416.319 571.327 417.858 571.953 418.958C572.589 420.057 573.467 420.607 574.587 420.607C575.757 420.607 576.661 420.073 577.296 419.003C577.932 417.933 578.25 416.41 578.25 414.432C578.25 412.464 577.927 410.93 577.281 409.83C576.646 408.73 575.757 408.18 574.617 408.18ZM574.738 406.53C577.12 406.53 579.012 407.252 580.415 408.695C581.817 410.128 582.519 412.07 582.519 414.522C582.519 416.843 581.787 418.71 580.324 420.123C578.861 421.536 576.918 422.242 574.496 422.242C572.165 422.242 570.283 421.531 568.85 420.108C567.427 418.675 566.716 416.793 566.716 414.462C566.716 412.07 567.447 410.153 568.911 408.71C570.374 407.257 572.316 406.53 574.738 406.53ZM584.35 422V420.607L586 420.486L586.439 420.017V409.315H584.199V408.074L588.755 406.621H590.253L590.117 409.785C590.652 409.22 591.222 408.675 591.828 408.15C592.433 407.615 593.069 407.111 593.735 406.636C593.906 406.606 594.043 406.586 594.144 406.576C594.255 406.566 594.35 406.561 594.431 406.561C594.764 406.561 595.097 406.606 595.43 406.697C595.773 406.778 596.121 406.909 596.475 407.09L596.081 411.374H594.461C594.229 410.991 593.947 410.708 593.614 410.526C593.291 410.345 592.902 410.254 592.448 410.254C592.186 410.254 591.868 410.33 591.495 410.481C591.131 410.622 590.718 410.834 590.253 411.117V420.017L590.708 420.486L592.917 420.607V422H584.35ZM614.729 405.229L612.035 412.888H617.5L614.729 405.229ZM614.048 400.975H617.303L624.432 420.168L626.264 420.486V422H617.893V420.486L619.846 420.29L620.073 419.896L618.211 414.628H611.445L609.583 419.866L609.901 420.259L611.854 420.486V422H605.178V420.486L607.04 420.199L614.048 400.975ZM626.642 422V420.486L628.701 420.32L629.215 419.835V403.306L628.701 402.867L626.642 402.716V401.202H635.921V402.716L633.847 402.867L633.348 403.306V419.835L633.847 420.32L635.921 420.486V422H626.642ZM656.355 418.958V413.902C654.317 414.356 652.924 414.85 652.178 415.385C651.431 415.92 651.058 416.647 651.058 417.565C651.058 418.281 651.264 418.852 651.678 419.275C652.092 419.689 652.652 419.896 653.358 419.896C653.752 419.896 654.196 419.82 654.69 419.669C655.195 419.507 655.75 419.27 656.355 418.958ZM656.355 420.229C655.306 420.945 654.352 421.465 653.495 421.788C652.637 422.111 651.814 422.272 651.027 422.272C649.837 422.272 648.863 421.899 648.106 421.152C647.349 420.396 646.971 419.427 646.971 418.246C646.971 416.793 647.526 415.673 648.636 414.886C649.746 414.099 652.334 413.246 656.401 412.328V411.404C656.401 410.284 656.164 409.467 655.689 408.952C655.215 408.438 654.468 408.18 653.449 408.18C653.227 408.18 652.995 408.195 652.753 408.226C652.511 408.256 652.248 408.301 651.966 408.362V411.268H649.105C648.611 411.268 648.247 411.177 648.015 410.996C647.793 410.814 647.682 410.526 647.682 410.133C647.682 409.164 648.333 408.321 649.635 407.605C650.937 406.889 652.536 406.53 654.433 406.53C656.562 406.53 658.061 406.939 658.929 407.756C659.797 408.574 660.23 409.997 660.23 412.025V420.047L660.639 420.486L662.289 420.638V422H656.764L656.355 420.229ZM668.737 421.41C668.303 421.763 667.975 422.156 667.753 422.59C667.531 423.024 667.42 423.488 667.42 423.983C667.42 424.841 667.769 425.572 668.465 426.178C669.161 426.783 670.014 427.086 671.023 427.086C672.093 427.086 672.976 426.803 673.672 426.238C674.368 425.683 674.716 424.992 674.716 424.165C674.716 423.519 674.484 423.024 674.02 422.681C673.566 422.348 672.683 422.071 671.371 421.849L668.737 421.41ZM670.872 408.044C670.074 408.044 669.439 408.372 668.964 409.028C668.5 409.674 668.268 410.547 668.268 411.646C668.268 412.787 668.5 413.7 668.964 414.386C669.429 415.062 670.044 415.4 670.811 415.4C671.558 415.4 672.163 415.057 672.627 414.371C673.092 413.675 673.324 412.757 673.324 411.616C673.324 410.557 673.092 409.699 672.627 409.043C672.173 408.377 671.588 408.044 670.872 408.044ZM675.216 407.499H679.802V409.255H676.442C676.674 409.659 676.846 410.057 676.957 410.451C677.078 410.844 677.138 411.243 677.138 411.646C677.138 413.18 676.538 414.422 675.337 415.37C674.136 416.319 672.542 416.793 670.554 416.793C670.322 416.793 670.14 416.793 670.009 416.793C669.888 416.783 669.772 416.773 669.661 416.763C669.57 416.985 669.504 417.192 669.464 417.383C669.434 417.565 669.418 417.742 669.418 417.913C669.418 418.034 669.424 418.165 669.434 418.307C669.454 418.448 669.479 418.594 669.509 418.746L671.613 419.018C674.166 419.391 675.932 419.896 676.911 420.532C677.9 421.157 678.395 422.061 678.395 423.241C678.395 424.775 677.602 426.072 676.018 427.131C674.434 428.191 672.451 428.721 670.069 428.721C668.071 428.721 666.502 428.337 665.362 427.57C664.222 426.813 663.651 425.784 663.651 424.482C663.651 423.514 663.934 422.727 664.499 422.121C665.064 421.516 665.841 421.162 666.83 421.062C666.699 420.779 666.598 420.512 666.527 420.259C666.467 419.997 666.437 419.75 666.437 419.518C666.437 419.023 666.573 418.544 666.845 418.08C667.118 417.605 667.552 417.106 668.147 416.581C666.906 416.228 665.952 415.648 665.286 414.84C664.63 414.033 664.302 413.059 664.302 411.919C664.302 410.314 664.898 409.028 666.088 408.059C667.289 407.08 668.904 406.591 670.932 406.591C671.618 406.591 672.32 406.667 673.036 406.818C673.753 406.969 674.479 407.196 675.216 407.499ZM690.852 412.449V412.116C690.852 410.854 690.62 409.891 690.156 409.225C689.692 408.549 689.026 408.21 688.158 408.21C687.209 408.21 686.447 408.589 685.872 409.346C685.297 410.092 684.984 411.127 684.934 412.449H690.852ZM694.924 418.155V420.456C693.864 421.062 692.795 421.516 691.715 421.818C690.635 422.121 689.555 422.272 688.476 422.272C686.165 422.272 684.308 421.561 682.905 420.138C681.513 418.715 680.816 416.833 680.816 414.492C680.816 412.141 681.528 410.224 682.951 408.74C684.384 407.247 686.225 406.5 688.476 406.5C690.514 406.5 692.098 407.116 693.229 408.347C694.359 409.568 694.924 411.288 694.924 413.508V414.099H684.782V414.189C684.782 415.955 685.226 417.343 686.114 418.352C687.002 419.361 688.223 419.866 689.777 419.866C690.595 419.866 691.427 419.724 692.275 419.442C693.123 419.159 694.006 418.73 694.924 418.155ZM696.876 422V420.607L698.466 420.486L698.905 420.017V409.315H696.786V408.074L701.251 406.621H702.75V408.453C703.93 407.797 704.949 407.317 705.807 407.015C706.665 406.712 707.412 406.561 708.047 406.561C709.46 406.561 710.515 406.984 711.211 407.832C711.907 408.68 712.255 409.971 712.255 411.707V420.017L712.664 420.486L714.299 420.607V422H706.715V420.607L708.047 420.486L708.471 420.017V412.6C708.471 411.45 708.249 410.607 707.805 410.072C707.361 409.527 706.655 409.255 705.686 409.255C705.313 409.255 704.879 409.3 704.384 409.391C703.9 409.482 703.355 409.613 702.75 409.785V420.017L703.173 420.486L704.536 420.607V422H696.876ZM717.296 409.164H715.283V407.983L717.568 406.682L719.188 403.458H721.141V407.302H725.727V409.164H721.141V416.884C721.141 418.044 721.327 418.836 721.701 419.26C722.074 419.684 722.745 419.896 723.714 419.896C724.097 419.896 724.451 419.881 724.773 419.851C725.106 419.81 725.424 419.755 725.727 419.684V421.167C724.839 421.49 723.991 421.738 723.184 421.909C722.387 422.071 721.655 422.151 720.989 422.151C720.444 422.151 719.96 422.096 719.536 421.985C719.122 421.874 718.749 421.702 718.416 421.47C718.002 421.198 717.71 420.86 717.538 420.456C717.377 420.042 717.296 419.285 717.296 418.186V409.164ZM738.048 407.272V411.404H736.187L735.884 409.073L735.505 408.725C735.162 408.564 734.819 408.443 734.476 408.362C734.133 408.281 733.795 408.241 733.462 408.241C732.715 408.241 732.135 408.407 731.721 408.74C731.307 409.063 731.101 409.517 731.101 410.103C731.101 410.587 731.262 411.006 731.585 411.359C731.908 411.712 732.71 412.201 733.992 412.827L734.052 412.857C737.029 414.29 738.518 415.749 738.518 417.232C738.518 418.816 737.952 420.068 736.822 420.986C735.702 421.894 734.158 422.348 732.19 422.348C731.424 422.348 730.611 422.283 729.753 422.151C728.906 422.02 728.013 421.823 727.074 421.561V416.975H728.936L729.299 419.639L729.617 419.987C730.021 420.199 730.44 420.36 730.874 420.471C731.307 420.582 731.757 420.638 732.221 420.638C733.038 420.638 733.679 420.441 734.143 420.047C734.617 419.644 734.854 419.094 734.854 418.397C734.854 417.52 733.961 416.677 732.175 415.87C731.57 415.597 731.101 415.375 730.768 415.204C729.486 414.568 728.583 413.942 728.058 413.327C727.543 412.701 727.286 411.964 727.286 411.117C727.286 409.734 727.836 408.619 728.936 407.771C730.046 406.924 731.524 406.5 733.371 406.5C734.158 406.5 734.94 406.566 735.717 406.697C736.494 406.818 737.271 407.01 738.048 407.272ZM759.315 418.958V413.902C757.277 414.356 755.884 414.85 755.138 415.385C754.391 415.92 754.018 416.647 754.018 417.565C754.018 418.281 754.224 418.852 754.638 419.275C755.052 419.689 755.612 419.896 756.318 419.896C756.712 419.896 757.156 419.82 757.65 419.669C758.155 419.507 758.71 419.27 759.315 418.958ZM759.315 420.229C758.266 420.945 757.312 421.465 756.455 421.788C755.597 422.111 754.774 422.272 753.987 422.272C752.797 422.272 751.823 421.899 751.066 421.152C750.309 420.396 749.931 419.427 749.931 418.246C749.931 416.793 750.486 415.673 751.596 414.886C752.706 414.099 755.294 413.246 759.361 412.328V411.404C759.361 410.284 759.124 409.467 758.649 408.952C758.175 408.438 757.428 408.18 756.409 408.18C756.187 408.18 755.955 408.195 755.713 408.226C755.471 408.256 755.208 408.301 754.926 408.362V411.268H752.065C751.57 411.268 751.207 411.177 750.975 410.996C750.753 410.814 750.642 410.526 750.642 410.133C750.642 409.164 751.293 408.321 752.595 407.605C753.896 406.889 755.496 406.53 757.393 406.53C759.522 406.53 761.021 406.939 761.889 407.756C762.757 408.574 763.19 409.997 763.19 412.025V420.047L763.599 420.486L765.249 420.638V422H759.724L759.315 420.229ZM766.505 422V420.607L768.095 420.486L768.534 420.017V409.315H766.415V408.074L770.88 406.621H772.378V408.453C773.559 407.797 774.578 407.317 775.436 407.015C776.294 406.712 777.041 406.561 777.676 406.561C779.089 406.561 780.144 406.984 780.84 407.832C781.536 408.68 781.884 409.971 781.884 411.707V420.017L782.293 420.486L783.928 420.607V422H776.344V420.607L777.676 420.486L778.1 420.017V412.6C778.1 411.45 777.878 410.607 777.434 410.072C776.99 409.527 776.284 409.255 775.315 409.255C774.942 409.255 774.508 409.3 774.013 409.391C773.529 409.482 772.984 409.613 772.378 409.785V420.017L772.802 420.486L774.165 420.607V422H766.505ZM796.385 419.048V408.695C795.921 408.543 795.502 408.432 795.129 408.362C794.756 408.281 794.407 408.241 794.084 408.241C792.732 408.241 791.647 408.776 790.83 409.845C790.023 410.915 789.619 412.353 789.619 414.159C789.619 415.875 789.987 417.217 790.724 418.186C791.461 419.154 792.48 419.639 793.782 419.639C794.125 419.639 794.508 419.593 794.932 419.502C795.366 419.402 795.85 419.25 796.385 419.048ZM796.385 401.792H794.115V400.551L798.731 399.098H800.169V420.017L800.593 420.517L802.183 420.638V422H796.385V420.259C795.437 420.956 794.569 421.465 793.782 421.788C792.995 422.111 792.228 422.272 791.481 422.272C789.725 422.272 788.282 421.581 787.152 420.199C786.032 418.806 785.472 417.01 785.472 414.81C785.472 412.338 786.208 410.335 787.682 408.801C789.165 407.267 791.092 406.5 793.464 406.5C793.908 406.5 794.372 406.525 794.856 406.576C795.341 406.626 795.85 406.702 796.385 406.803V401.792ZM823.904 419.048V408.695C823.44 408.543 823.021 408.432 822.647 408.362C822.274 408.281 821.926 408.241 821.603 408.241C820.251 408.241 819.166 408.776 818.349 409.845C817.541 410.915 817.138 412.353 817.138 414.159C817.138 415.875 817.506 417.217 818.243 418.186C818.979 419.154 819.999 419.639 821.3 419.639C821.643 419.639 822.027 419.593 822.451 419.502C822.885 419.402 823.369 419.25 823.904 419.048ZM823.904 401.792H821.633V400.551L826.25 399.098H827.688V420.017L828.112 420.517L829.701 420.638V422H823.904V420.259C822.955 420.956 822.087 421.465 821.3 421.788C820.513 422.111 819.746 422.272 819 422.272C817.244 422.272 815.801 421.581 814.67 420.199C813.55 418.806 812.99 417.01 812.99 414.81C812.99 412.338 813.727 410.335 815.2 408.801C816.684 407.267 818.611 406.5 820.982 406.5C821.426 406.5 821.891 406.525 822.375 406.576C822.859 406.626 823.369 406.702 823.904 406.803V401.792ZM841.523 412.449V412.116C841.523 410.854 841.291 409.891 840.827 409.225C840.362 408.549 839.696 408.21 838.829 408.21C837.88 408.21 837.118 408.589 836.543 409.346C835.968 410.092 835.655 411.127 835.604 412.449H841.523ZM845.595 418.155V420.456C844.535 421.062 843.465 421.516 842.386 421.818C841.306 422.121 840.226 422.272 839.146 422.272C836.836 422.272 834.979 421.561 833.576 420.138C832.184 418.715 831.487 416.833 831.487 414.492C831.487 412.141 832.199 410.224 833.622 408.74C835.055 407.247 836.896 406.5 839.146 406.5C841.185 406.5 842.769 407.116 843.899 408.347C845.03 409.568 845.595 411.288 845.595 413.508V414.099H835.453V414.189C835.453 415.955 835.897 417.343 836.785 418.352C837.673 419.361 838.894 419.866 840.448 419.866C841.266 419.866 842.098 419.724 842.946 419.442C843.793 419.159 844.676 418.73 845.595 418.155ZM846.412 406.909H854.283V408.332L852.664 408.483L852.331 408.892L855.555 417.943L859.082 408.922L858.839 408.483L857.265 408.332V406.909H863.153V408.332L861.352 408.543L856.024 422H853.224L848.274 408.513L846.412 408.332V406.909ZM873.704 412.449V412.116C873.704 410.854 873.472 409.891 873.007 409.225C872.543 408.549 871.877 408.21 871.009 408.21C870.061 408.21 869.299 408.589 868.724 409.346C868.148 410.092 867.836 411.127 867.785 412.449H873.704ZM877.775 418.155V420.456C876.716 421.062 875.646 421.516 874.566 421.818C873.487 422.121 872.407 422.272 871.327 422.272C869.016 422.272 867.16 421.561 865.757 420.138C864.364 418.715 863.668 416.833 863.668 414.492C863.668 412.141 864.379 410.224 865.802 408.74C867.235 407.247 869.077 406.5 871.327 406.5C873.366 406.5 874.95 407.116 876.08 408.347C877.21 409.568 877.775 411.288 877.775 413.508V414.099H867.634V414.189C867.634 415.955 868.078 417.343 868.966 418.352C869.854 419.361 871.075 419.866 872.629 419.866C873.446 419.866 874.279 419.724 875.126 419.442C875.974 419.159 876.857 418.73 877.775 418.155ZM879.486 422V420.638L881.287 420.456L881.726 420.017V401.792H879.486V400.551L884.163 399.098H885.525V419.957L885.995 420.456L887.796 420.638V422H879.486ZM897.271 408.18C896.141 408.18 895.258 408.72 894.623 409.8C893.987 410.88 893.669 412.393 893.669 414.341C893.669 416.319 893.982 417.858 894.607 418.958C895.243 420.057 896.121 420.607 897.241 420.607C898.412 420.607 899.315 420.073 899.951 419.003C900.586 417.933 900.904 416.41 900.904 414.432C900.904 412.464 900.581 410.93 899.936 409.83C899.3 408.73 898.412 408.18 897.271 408.18ZM897.393 406.53C899.774 406.53 901.666 407.252 903.069 408.695C904.472 410.128 905.173 412.07 905.173 414.522C905.173 416.843 904.441 418.71 902.978 420.123C901.515 421.536 899.572 422.242 897.15 422.242C894.819 422.242 892.937 421.531 891.504 420.108C890.082 418.675 889.37 416.793 889.37 414.462C889.37 412.07 890.102 410.153 891.565 408.71C893.028 407.257 894.971 406.53 897.393 406.53ZM912.711 420.138C913.044 420.209 913.372 420.264 913.695 420.305C914.028 420.335 914.361 420.35 914.694 420.35C916.086 420.35 917.191 419.81 918.009 418.73C918.836 417.651 919.25 416.198 919.25 414.371C919.25 412.746 918.887 411.48 918.16 410.572C917.444 409.653 916.445 409.194 915.163 409.194C914.83 409.194 914.462 409.245 914.058 409.346C913.665 409.437 913.215 409.583 912.711 409.785V420.138ZM906.823 428.796V427.358L908.503 427.207L908.927 426.738V409.315H906.823V408.074L911.318 406.621H912.711V408.483C913.69 407.807 914.573 407.312 915.36 407C916.147 406.687 916.899 406.53 917.615 406.53C919.3 406.53 920.698 407.222 921.808 408.604C922.918 409.976 923.473 411.722 923.473 413.841C923.473 416.324 922.731 418.307 921.248 419.79C919.765 421.263 917.767 422 915.254 422C914.83 422 914.406 421.99 913.982 421.97C913.569 421.939 913.15 421.899 912.726 421.849L912.711 426.798L913.18 427.237L915.103 427.358V428.796H906.823ZM935.613 412.449V412.116C935.613 410.854 935.381 409.891 934.917 409.225C934.452 408.549 933.786 408.21 932.918 408.21C931.97 408.21 931.208 408.589 930.633 409.346C930.058 410.092 929.745 411.127 929.694 412.449H935.613ZM939.685 418.155V420.456C938.625 421.062 937.555 421.516 936.476 421.818C935.396 422.121 934.316 422.272 933.236 422.272C930.925 422.272 929.069 421.561 927.666 420.138C926.273 418.715 925.577 416.833 925.577 414.492C925.577 412.141 926.289 410.224 927.711 408.74C929.144 407.247 930.986 406.5 933.236 406.5C935.275 406.5 936.859 407.116 937.989 408.347C939.119 409.568 939.685 411.288 939.685 413.508V414.099H929.543V414.189C929.543 415.955 929.987 417.343 930.875 418.352C931.763 419.361 932.984 419.866 934.538 419.866C935.355 419.866 936.188 419.724 937.036 419.442C937.883 419.159 938.766 418.73 939.685 418.155ZM941.577 422V420.607L943.227 420.486L943.666 420.017V409.315H941.425V408.074L945.981 406.621H947.48L947.344 409.785C947.879 409.22 948.449 408.675 949.054 408.15C949.66 407.615 950.295 407.111 950.961 406.636C951.133 406.606 951.269 406.586 951.37 406.576C951.481 406.566 951.577 406.561 951.658 406.561C951.991 406.561 952.324 406.606 952.657 406.697C953 406.778 953.348 406.909 953.701 407.09L953.308 411.374H951.688C951.456 410.991 951.173 410.708 950.84 410.526C950.517 410.345 950.129 410.254 949.675 410.254C949.412 410.254 949.095 410.33 948.721 410.481C948.358 410.622 947.944 410.834 947.48 411.117V420.017L947.934 420.486L950.144 420.607V422H941.577ZM965.977 407.272V411.404H964.115L963.812 409.073L963.434 408.725C963.091 408.564 962.748 408.443 962.405 408.362C962.062 408.281 961.724 408.241 961.391 408.241C960.644 408.241 960.064 408.407 959.65 408.74C959.236 409.063 959.029 409.517 959.029 410.103C959.029 410.587 959.191 411.006 959.514 411.359C959.837 411.712 960.639 412.201 961.92 412.827L961.981 412.857C964.958 414.29 966.446 415.749 966.446 417.232C966.446 418.816 965.881 420.068 964.751 420.986C963.631 421.894 962.087 422.348 960.119 422.348C959.352 422.348 958.54 422.283 957.682 422.151C956.834 422.02 955.941 421.823 955.003 421.561V416.975H956.865L957.228 419.639L957.546 419.987C957.95 420.199 958.368 420.36 958.802 420.471C959.236 420.582 959.685 420.638 960.149 420.638C960.967 420.638 961.608 420.441 962.072 420.047C962.546 419.644 962.783 419.094 962.783 418.397C962.783 417.52 961.89 416.677 960.104 415.87C959.499 415.597 959.029 415.375 958.696 415.204C957.415 414.568 956.512 413.942 955.987 413.327C955.472 412.701 955.215 411.964 955.215 411.117C955.215 409.734 955.765 408.619 956.865 407.771C957.975 406.924 959.453 406.5 961.3 406.5C962.087 406.5 962.869 406.566 963.646 406.697C964.423 406.818 965.2 407.01 965.977 407.272ZM972.062 417.323C972.738 417.323 973.318 417.565 973.803 418.049C974.297 418.534 974.544 419.119 974.544 419.805C974.544 420.481 974.302 421.056 973.818 421.531C973.333 422.005 972.748 422.242 972.062 422.242C971.396 422.242 970.826 422.005 970.352 421.531C969.877 421.056 969.64 420.481 969.64 419.805C969.64 419.109 969.872 418.524 970.336 418.049C970.811 417.565 971.386 417.323 972.062 417.323Z" fill="black"/>
<rect x="555.44" y="478.44" width="297.12" height="61.1201" rx="7.20006" fill="#F1EBE3" stroke="#BFBAB1" stroke-width="0.879888"/>
<path d="M581.888 519V499.546H585.156V503.204C585.286 502.737 585.584 502.179 586.051 501.531C586.518 500.882 587.205 500.312 588.113 499.819C589.021 499.326 590.201 499.08 591.654 499.08C593.547 499.08 595.103 499.689 596.323 500.908C597.568 502.127 598.19 503.904 598.19 506.238V519H594.922V506.705C594.922 505.019 594.52 503.826 593.716 503.126C592.912 502.4 591.861 502.037 590.564 502.037C588.775 502.037 587.426 502.646 586.518 503.865C585.61 505.084 585.156 506.628 585.156 508.495V519H581.888ZM605.103 527.949V499.546H608.255V503.359C608.54 502.633 608.955 501.946 609.5 501.297C610.044 500.649 610.732 500.117 611.562 499.702C612.392 499.287 613.377 499.08 614.519 499.08C616.231 499.08 617.748 499.482 619.071 500.286C620.394 501.064 621.431 502.205 622.183 503.71C622.935 505.214 623.312 507.069 623.312 509.273C623.312 511.4 622.948 513.229 622.222 514.759C621.496 516.264 620.484 517.431 619.187 518.261C617.916 519.065 616.425 519.467 614.713 519.467C613.831 519.467 612.949 519.311 612.067 519C611.186 518.663 610.42 518.183 609.772 517.56C609.123 516.912 608.657 516.147 608.371 515.265V527.949H605.103ZM614.246 516.51C615.569 516.51 616.658 516.186 617.514 515.537C618.37 514.889 619.006 514.007 619.421 512.892C619.836 511.776 620.043 510.544 620.043 509.195C620.043 507.847 619.836 506.628 619.421 505.538C619.006 504.449 618.37 503.593 617.514 502.97C616.684 502.322 615.634 501.998 614.363 501.998C612.444 501.998 610.965 502.672 609.928 504.021C608.916 505.37 608.41 507.12 608.41 509.273C608.41 510.596 608.631 511.802 609.072 512.892C609.538 513.981 610.2 514.85 611.056 515.498C611.938 516.147 613.001 516.484 614.246 516.51ZM629.002 519V499.546H632.27V503.204C632.4 502.737 632.698 502.179 633.165 501.531C633.632 500.882 634.319 500.312 635.227 499.819C636.135 499.326 637.315 499.08 638.768 499.08C640.246 499.08 641.53 499.469 642.62 500.247C643.735 500.999 644.513 502.114 644.954 503.593V503.515C645.084 503.048 645.408 502.465 645.927 501.764C646.445 501.064 647.185 500.441 648.144 499.897C649.13 499.352 650.349 499.08 651.802 499.08C653.695 499.08 655.251 499.689 656.47 500.908C657.715 502.127 658.338 503.904 658.338 506.238V519H655.07V506.705C655.07 505.019 654.668 503.826 653.864 503.126C653.06 502.4 652.009 502.037 650.712 502.037C648.922 502.037 647.574 502.646 646.666 503.865C645.758 505.084 645.304 506.628 645.304 508.495V519H642.036V506.705C642.036 505.019 641.634 503.826 640.83 503.126C640.026 502.4 638.975 502.037 637.678 502.037C635.889 502.037 634.54 502.646 633.632 503.865C632.724 505.084 632.27 506.628 632.27 508.495V519H629.002ZM675.736 519V499.546H679.004V503.398C679.264 502.698 679.627 502.024 680.094 501.375C680.587 500.701 681.248 500.156 682.078 499.741C682.934 499.3 684.023 499.08 685.346 499.08C685.554 499.08 685.839 499.106 686.202 499.157C686.565 499.183 686.838 499.209 687.019 499.235V502.27C686.63 502.14 686.137 502.049 685.541 501.998C684.944 501.92 684.399 501.933 683.907 502.037C682.324 502.348 681.105 503.035 680.249 504.099C679.419 505.162 679.004 506.628 679.004 508.495V519H675.736ZM697.693 519.467C695.8 519.467 694.23 518.857 692.985 517.638C691.766 516.419 691.157 514.642 691.157 512.308V499.546H694.425V511.841C694.425 513.527 694.827 514.733 695.631 515.459C696.435 516.16 697.486 516.51 698.782 516.51C700.572 516.51 701.921 515.9 702.829 514.681C703.737 513.462 704.191 511.919 704.191 510.051V499.546H707.459V519H704.191V515.343C704.087 515.784 703.789 516.341 703.296 517.016C702.829 517.664 702.141 518.235 701.234 518.728C700.326 519.22 699.146 519.467 697.693 519.467ZM714.605 519V499.546H717.873V503.204C718.003 502.737 718.301 502.179 718.768 501.531C719.235 500.882 719.922 500.312 720.83 499.819C721.738 499.326 722.918 499.08 724.371 499.08C726.264 499.08 727.821 499.689 729.04 500.908C730.285 502.127 730.907 503.904 730.907 506.238V519H727.639V506.705C727.639 505.019 727.237 503.826 726.433 503.126C725.629 502.4 724.578 502.037 723.281 502.037C721.492 502.037 720.143 502.646 719.235 503.865C718.327 505.084 717.873 506.628 717.873 508.495V519H714.605ZM754.223 519.467C752.926 519.467 751.694 519.195 750.526 518.65C749.359 518.079 748.412 517.301 747.686 516.315C746.96 515.33 746.597 514.201 746.597 512.93H750.098C750.098 513.735 750.332 514.409 750.799 514.954C751.266 515.472 751.836 515.861 752.511 516.121C753.185 516.38 753.846 516.51 754.495 516.51C755.792 516.51 756.829 516.277 757.608 515.81C758.386 515.343 758.775 514.629 758.775 513.67C758.775 512.814 758.489 512.178 757.919 511.763C757.348 511.322 756.622 510.998 755.74 510.791C754.858 510.557 753.911 510.35 752.9 510.168C751.888 509.987 750.941 509.727 750.06 509.39C749.178 509.053 748.451 508.534 747.881 507.834C747.31 507.133 747.025 506.161 747.025 504.916C747.025 503.956 747.284 503.035 747.803 502.153C748.322 501.271 749.1 500.545 750.137 499.974C751.201 499.378 752.524 499.08 754.106 499.08C755.999 499.08 757.491 499.391 758.58 500.013C759.696 500.61 760.487 501.349 760.954 502.231C761.446 503.087 761.693 503.917 761.693 504.721H758.347C758.347 504.073 757.984 503.463 757.257 502.892C756.531 502.322 755.468 502.037 754.067 502.037C752.796 502.037 751.849 502.296 751.227 502.815C750.604 503.307 750.293 503.969 750.293 504.799C750.293 505.525 750.578 506.083 751.149 506.472C751.72 506.861 752.446 507.172 753.328 507.406C754.236 507.613 755.182 507.834 756.168 508.067C757.18 508.275 758.126 508.586 759.008 509.001C759.916 509.39 760.655 509.961 761.226 510.713C761.797 511.439 762.082 512.425 762.082 513.67C762.082 514.707 761.797 515.667 761.226 516.549C760.681 517.431 759.825 518.144 758.658 518.689C757.517 519.208 756.038 519.467 754.223 519.467ZM768.615 527.949C768.2 527.949 767.811 527.91 767.448 527.832C767.085 527.78 766.774 527.715 766.514 527.637V524.68C766.748 524.732 767.033 524.771 767.37 524.797C767.708 524.823 768.045 524.836 768.382 524.836C768.979 524.836 769.523 524.68 770.016 524.369C770.535 524.084 771.028 523.513 771.495 522.657C771.961 521.801 772.428 520.543 772.895 518.883L764.803 499.546H768.149L774.413 514.37L779.665 499.546H783.128L775.307 520.323C774.685 522.009 774.088 523.409 773.518 524.525C772.973 525.666 772.325 526.522 771.572 527.093C770.82 527.663 769.835 527.949 768.615 527.949ZM787.176 519V499.546H790.444V503.204C790.574 502.737 790.872 502.179 791.339 501.531C791.806 500.882 792.493 500.312 793.401 499.819C794.309 499.326 795.489 499.08 796.942 499.08C798.835 499.08 800.391 499.689 801.61 500.908C802.855 502.127 803.478 503.904 803.478 506.238V519H800.21V506.705C800.21 505.019 799.808 503.826 799.004 503.126C798.2 502.4 797.149 502.037 795.852 502.037C794.062 502.037 792.714 502.646 791.806 503.865C790.898 505.084 790.444 506.628 790.444 508.495V519H787.176ZM818.172 519.506C816.538 519.506 815.008 519.104 813.581 518.3C812.181 517.47 811.052 516.289 810.196 514.759C809.341 513.229 808.913 511.426 808.913 509.351C808.913 507.224 809.341 505.395 810.196 503.865C811.052 502.335 812.181 501.155 813.581 500.325C815.008 499.495 816.538 499.08 818.172 499.08C819.884 499.08 821.428 499.534 822.802 500.441C824.177 501.323 825.202 502.568 825.876 504.176L822.919 505.344C822.504 504.358 821.882 503.567 821.052 502.97C820.247 502.348 819.262 502.037 818.095 502.037C816.772 502.037 815.669 502.361 814.788 503.009C813.932 503.632 813.283 504.488 812.842 505.577C812.401 506.666 812.181 507.886 812.181 509.234C812.181 510.583 812.401 511.815 812.842 512.93C813.283 514.02 813.932 514.902 814.788 515.576C815.669 516.225 816.772 516.549 818.095 516.549C819.262 516.549 820.247 516.251 821.052 515.654C821.882 515.031 822.504 514.227 822.919 513.242L825.876 514.409C825.202 516.017 824.164 517.275 822.763 518.183C821.389 519.065 819.858 519.506 818.172 519.506Z" fill="black"/>
</svg>
